<svg xmlns="http://www.w3.org/2000/svg" width="17" height="18" viewBox="0 0 17 18"><path fill="#fff" d="M12.37.9H5.19A4.45 4.45 0 0 0 .77 5.37v7.26a4.45 4.45 0 0 0 4.42 4.47h7.18a4.45 4.45 0 0 0 4.42-4.47V5.37A4.45 4.45 0 0 0 12.37.9zm0 14.76H5.19c-1.65 0-3-1.36-3-3.03V5.37a3.02 3.02 0 0 1 3-3.03h7.18c1.65 0 3 1.36 3 3.03v7.26a3.02 3.02 0 0 1-3 3.03zM8.78 4.83A4.15 4.15 0 0 0 4.65 9c0 2.3 1.85 4.17 4.13 4.17A4.15 4.15 0 0 0 12.91 9c0-2.3-1.85-4.17-4.13-4.17zm0 6.91A2.73 2.73 0 0 1 6.07 9a2.73 2.73 0 0 1 2.71-2.74A2.73 2.73 0 0 1 11.49 9a2.73 2.73 0 0 1-2.71 2.74zm4.3-8.13c-.27 0-.54.11-.74.31-.19.19-.3.46-.3.74 0 .28.11.55.3.75.2.19.47.31.74.31.28 0 .54-.12.74-.31.19-.2.3-.47.3-.75s-.11-.55-.3-.74c-.19-.2-.46-.31-.74-.31z"/></svg>