<svg xmlns="http://www.w3.org/2000/svg" width="21" height="11" viewBox="0 0 21 11"><path fill="#fff" d="M18.2 6.8c.66.56 1.37 1.09 1.96 1.72.26.28.51.56.7.88.27.46.03.96-.44.99H17.5a2.42 2.42 0 0 1-1.85-.66c-.41-.36-.78-.74-1.17-1.11a2.3 2.3 0 0 0-.52-.41c-.4-.23-.75-.16-.97.21-.23.36-.29.77-.31 1.18-.03.6-.24.76-.93.79a8.36 8.36 0 0 1-4.17-.78 9.18 9.18 0 0 1-2.81-2.3 30.6 30.6 0 0 1-3.69-5.76c-.23-.45-.06-.7.51-.7.95-.02 1.9-.02 2.85-.01.39.01.65.2.8.52A14.82 14.82 0 0 0 7.17 4.5c.21.26.43.52.73.7.34.2.6.13.76-.2.1-.2.14-.43.16-.65.08-.77.09-1.54-.04-2.31-.08-.48-.39-.78-.94-.88-.28-.04-.24-.13-.1-.27.23-.24.45-.39.89-.39h3.3c.52.09.63.29.7.75v3.2c0 .18.11.7.47.82.29.08.48-.12.66-.29a9.66 9.66 0 0 0 1.85-2.49c.23-.39.42-.8.6-1.21.14-.3.36-.45.75-.45l3.17.01.28.01c.53.08.68.28.52.74a7 7 0 0 1-1.27 1.91c-.52.64-1.09 1.26-1.61 1.9-.49.59-.45.88.15 1.4z"/></svg>